<mxfile host="app.diagrams.net" modified="2024-04-24T15:32:37.898Z" agent="Mozilla/5.0 (Windows NT 10.0; Win64; x64; rv:125.0) Gecko/20100101 Firefox/125.0" etag="A1iYhiLgnDrRyuvTFC3X" version="24.3.0" type="github">
  <diagram name="第 1 页" id="6dHwQtETcusNjVFYbQ4o">
    <mxGraphModel dx="1434" dy="774" grid="1" gridSize="10" guides="1" tooltips="1" connect="1" arrows="1" fold="1" page="1" pageScale="1" pageWidth="827" pageHeight="1169" math="0" shadow="0">
      <root>
        <mxCell id="0" />
        <mxCell id="1" parent="0" />
      </root>
    </mxGraphModel>
  </diagram>
</mxfile>
